# Blender 3.1.0
# www.blender.org
o Сфера
v -0.040960 -1.079923 -0.918175
v 0.035579 -1.563997 -0.587862
v 0.400528 -0.540198 -1.282606
v 0.898002 0.272508 -0.926043
v 0.392989 -1.837180 -0.022088
v 0.956401 1.760787 0.051549
v 0.008790 2.010600 -0.044269
v -1.418739 -0.661571 0.757710
v -0.007073 1.363444 -1.391386
v 0.578349 1.649731 -0.902731
v 0.312003 1.745469 -0.941054
v 0.514223 -1.248807 -1.070275
v 0.572947 -1.561771 -0.583180
v 1.027270 -0.985613 -0.939022
v 0.902664 1.041945 -0.898149
v 1.268052 0.752650 -0.564043
v 0.354785 2.006133 -0.182023
v 1.565417 -0.938726 -0.469621
v 1.182759 -1.493533 -0.423924
v 0.094755 -1.810916 -0.093065
v 1.473260 -1.384891 -0.075307
v 1.044800 -1.503405 0.566587
v 1.501966 -0.799216 0.472789
v 0.011045 -1.845683 0.005851
v 1.003263 -0.278947 0.956258
v 0.716709 1.924550 0.332939
v 0.580398 1.727167 1.138099
v 0.387528 1.315016 1.591336
v 0.163193 2.036870 0.328555
v -0.040820 0.094391 1.891343
v -0.243444 -1.626183 1.045626
v 0.139478 -0.987438 1.545114
v -0.018137 1.957448 0.829596
v -0.627821 -0.130426 1.800750
v -0.166317 1.552584 1.555232
v -0.024428 1.076489 1.849514
v -0.342572 -0.840902 1.804188
v -0.823157 -1.270894 1.235775
v -0.300450 1.795847 1.088798
v -1.240485 0.866517 0.989876
v -0.275567 -1.775382 0.458826
v -1.225474 -0.901397 0.873878
v -0.131719 -1.881694 0.187087
v -0.703865 -1.591598 0.695236
v -0.344065 1.905735 -0.085518
v -1.641706 0.525358 0.288597
v -1.616199 -0.650910 0.258075
v -1.123554 1.542375 0.593569
v -1.180282 -1.273633 0.132740
v -1.549580 -0.822250 -0.057480
v -1.433720 0.490996 -0.547450
v -1.375449 1.041893 0.361161
v -1.350590 -1.174914 -0.052321
v -1.325116 0.460268 -0.718746
v -0.601977 -1.443293 -0.386434
v -1.030116 -1.019228 -0.617869
v -1.034593 0.259968 -1.267778
v -1.000482 1.559974 -0.330535
v -0.819606 -0.713867 -0.909299
v -0.824189 0.130425 -1.411411
v -0.908140 1.012931 -0.950445
v -0.170710 1.658402 -1.027520
v -0.437928 -0.843462 -0.720361
v -0.426347 0.903513 -1.580552
v -0.660466 -0.171162 -1.616809
v -0.336344 -0.301905 -1.637747
v -0.269727 -0.624552 -1.400797
v -0.006631 0.570718 -1.652372
v 0.559848 -0.082850 -1.253634
v 0.483612 0.890701 -1.332094
v 1.289454 -0.403177 -0.967843
v 1.391235 -0.023773 -0.641387
v 0.322394 2.069826 0.064621
v 1.609174 -0.454659 -0.001283
v 1.265532 1.125482 0.374205
v 1.377062 0.376680 0.371941
v 1.129262 1.118600 0.927211
v 1.077942 1.602126 0.463955
v 0.812930 -1.861688 0.252232
v 0.800008 -0.554814 0.948552
v 0.573854 0.905463 1.627696
v 0.945229 0.040440 1.077842
v 0.106306 -1.897902 0.210433
v 0.552954 -1.104620 1.102302
v 0.204505 -1.781403 0.907646
v 0.222859 0.085003 1.779259
v -0.408459 -1.212924 1.527971
v -0.884768 0.774732 1.516010
v -0.912611 -0.368714 1.595095
v -0.323371 1.896194 0.264177
v -1.467394 -0.060644 0.573942
v -1.125799 0.038796 0.954721
v -0.758725 -1.650466 0.217919
v -0.173033 -1.842316 0.010682
v -1.405818 0.102645 -0.737395
v -1.287639 -0.490142 -0.791026
v -0.106395 -1.772163 -0.187070
vn 0.4237 -0.1750 -0.8887
vn -0.3766 -0.7562 -0.5350
vn 0.0082 -0.8408 -0.5412
vn 0.5574 -0.0232 -0.8299
vn -0.1131 0.9418 -0.3167
vn 0.3207 0.5980 -0.7345
vn 0.3609 0.8756 -0.3210
vn 0.7155 0.0210 -0.6983
vn 0.6975 -0.0031 -0.7166
vn 0.0076 -0.8944 -0.4472
vn -0.0191 -0.9381 -0.3459
vn -0.1140 0.9416 -0.3169
vn 0.4276 -0.0920 -0.8993
vn 0.2905 -0.1773 -0.9403
vn 0.3454 -0.2181 -0.9128
vn 0.6842 0.0223 -0.7290
vn 0.0241 -0.9005 -0.4343
vn 0.7236 -0.5350 -0.4362
vn 0.9848 0.1624 -0.0619
vn 0.6526 -0.6924 0.3078
vn 0.9881 0.1473 -0.0444
vn 0.1976 -0.9023 -0.3832
vn 0.9433 0.3130 -0.1105
vn 0.9155 0.3833 -0.1223
vn 0.7588 0.1352 0.6372
vn 0.4306 0.8898 -0.1510
vn 0.4745 0.8594 0.1908
vn 0.7415 0.6118 0.2755
vn 0.5353 -0.2396 0.8100
vn 0.3389 -0.2748 0.8998
vn 0.9195 0.3185 0.2305
vn 0.0654 -0.9591 -0.2753
vn -0.1885 0.9820 0.0089
vn 0.1915 0.9531 0.2345
vn 0.8264 -0.0629 0.5596
vn 0.6661 0.3779 0.6431
vn 0.7899 -0.0494 0.6113
vn 0.0411 -0.9864 0.1590
vn 0.3443 -0.2787 0.8965
vn 0.3913 0.0026 0.9203
vn 0.7410 -0.3101 0.5956
vn 0.2394 0.6655 0.7070
vn 0.6867 0.3681 0.6269
vn 0.2256 -0.6062 0.7626
vn 0.0760 0.8641 0.4976
vn -0.1874 -0.9642 0.1875
vn 0.3743 -0.2255 0.8995
vn -0.0439 -0.9727 -0.2278
vn 0.4108 -0.2151 0.8860
vn -0.0649 0.8770 0.4761
vn -0.5176 0.6885 0.5079
vn -0.6045 0.5283 0.5962
vn -0.4694 -0.1843 0.8635
vn -0.2839 0.9576 0.0495
vn -0.5657 -0.3529 0.7453
vn -0.7751 -0.2986 0.5568
vn -0.8222 0.0592 0.5662
vn -0.7673 -0.5907 0.2499
vn -0.7034 0.4462 0.5534
vn -0.7523 -0.3301 0.5701
vn -0.3587 0.9254 0.1226
vn -0.8293 -0.1379 0.5415
vn -0.3319 -0.9248 0.1861
vn -0.0234 -0.9769 -0.2126
vn -0.9291 0.0373 0.3680
vn -0.6756 -0.7182 0.1662
vn -0.2892 0.9563 0.0432
vn -0.8803 -0.0314 0.4733
vn -0.4806 0.8754 0.0523
vn -0.8675 0.4860 -0.1063
vn -0.8512 0.4712 -0.2311
vn -0.9776 0.0077 -0.2106
vn -0.8080 0.2110 -0.5501
vn -0.9307 -0.2125 0.2977
vn -0.9331 -0.0505 -0.3561
vn -0.4769 -0.7402 -0.4740
vn -0.7140 -0.5059 -0.4840
vn -0.7756 0.4115 -0.4786
vn -0.7628 0.3467 -0.5458
vn -0.3784 -0.8248 -0.4201
vn -0.0262 -0.9393 -0.3420
vn -0.6446 -0.2432 -0.7248
vn -0.4178 -0.4598 -0.7836
vn 0.0951 -0.7208 -0.6866
vn -0.7669 0.3543 -0.5351
vn -0.2418 0.9267 -0.2878
vn -0.1494 -0.9299 -0.3361
vn -0.7048 0.3728 -0.6036
vn -0.5822 0.5995 -0.5492
vn -0.6052 -0.7020 -0.3754
vn -0.5573 -0.2823 -0.7809
vn -0.3439 -0.5658 -0.7494
vn 0.0851 0.3116 -0.9464
vn 0.4101 -0.0853 -0.9081
vn -0.0251 0.7710 -0.6363
vn 0.3843 0.2889 -0.8768
vn -0.3732 -0.5625 -0.7378
vn 0.0383 -0.8923 -0.4499
vn 0.1987 -0.2519 -0.9471
vn 0.4706 0.3892 -0.7919
vn 0.6208 0.3259 -0.7131
vn 0.4624 -0.5576 -0.6894
vn 0.4640 0.3199 -0.8260
vn 0.8572 0.1839 -0.4810
vn 0.9117 0.0987 -0.3989
vn 0.4533 0.8468 -0.2781
vn 0.6381 -0.3219 -0.6994
vn 0.7706 0.4075 -0.4899
vn 0.6033 -0.4692 -0.6448
vn 0.2325 -0.8053 -0.5454
vn 0.4346 0.3042 -0.8477
vn 0.2001 -0.9034 -0.3792
vn -0.0035 -0.9425 -0.3342
vn 0.9622 0.1393 -0.2339
vn 0.4287 0.8868 -0.1727
vn -0.0912 0.9612 -0.2602
vn 0.9869 -0.1491 0.0619
vn 0.7985 0.4737 -0.3715
vn 0.5193 -0.8372 -0.1718
vn 0.7796 -0.4478 0.4377
vn 0.9820 -0.1523 0.1114
vn 0.9167 0.3722 -0.1454
vn 0.9438 0.1264 0.3053
vn 0.0141 -0.9938 -0.1103
vn 0.9607 0.1424 0.2385
vn 0.7354 0.5078 0.4486
vn 0.6900 -0.1100 0.7154
vn 0.8736 -0.0688 0.4817
vn 0.4492 -0.7356 0.5071
vn 0.1923 0.9561 0.2211
vn 0.2228 0.9374 0.2675
vn 0.4601 -0.4560 0.7618
vn 0.6825 -0.1603 0.7131
vn 0.6749 -0.2071 0.7082
vn 0.7086 -0.1242 0.6946
vn 0.4002 0.2601 0.8788
vn 0.1857 0.5561 0.8101
vn 0.5716 -0.4847 0.6620
vn -0.0710 -0.7694 0.6349
vn -0.2468 -0.9359 0.2515
vn 0.3559 0.0338 0.9339
vn -0.1340 -0.0490 0.9898
vn -0.2826 0.9579 0.0496
vn 0.2225 -0.5992 0.7690
vn -0.4617 -0.4746 0.7494
vn -0.4458 0.3707 0.8147
vn -0.4068 0.1671 0.8981
vn -0.1691 0.0448 0.9846
vn -0.0955 -0.9431 0.3184
vn -0.4067 0.9054 0.1215
vn -0.4339 -0.7521 0.4960
vn -0.2073 -0.8607 0.4649
vn -0.2612 -0.9320 0.2513
vn -0.6214 0.0691 0.7804
vn -0.7151 -0.6590 0.2332
vn -0.9627 -0.1431 0.2294
vn -0.8658 0.2384 0.4399
vn -0.3177 -0.9359 0.1519
vn -0.9030 0.3227 0.2838
vn -0.7548 0.1352 0.6419
vn -0.8081 -0.5017 0.3087
vn -0.7693 -0.5885 0.2487
vn -0.4172 0.9080 -0.0383
vn -0.7953 -0.5871 0.1509
vn -0.8648 0.4039 0.2983
vn -0.7531 0.0931 0.6513
vn -0.3362 -0.8607 -0.3823
vn -0.6786 -0.7345 -0.0050
vn -0.9705 -0.0148 -0.2408
vn -0.7675 -0.4260 0.4790
vn -0.5667 -0.7232 -0.3949
vn -0.8970 0.4012 -0.1857
vn -0.7340 -0.4220 -0.5321
vn -0.3861 -0.9130 -0.1317
vn -0.8290 0.2140 -0.5167
vn -0.7996 -0.1059 -0.5911
vn -0.5651 0.5750 -0.5916
vn -0.0075 -0.4848 -0.8746
vn -0.7933 -0.0161 -0.6087
vn -0.3554 0.8859 -0.2980
vn -0.4351 -0.6645 -0.6076
vn -0.4630 -0.6499 -0.6027
vn -0.5254 0.0852 -0.8465
vn -0.6392 0.1646 -0.7512
vn -0.3152 -0.7919 -0.5230
vn -0.1220 0.0600 -0.9907
vn -0.0618 0.0066 -0.9981
vn -0.2917 -0.6046 -0.7412
vn 0.2117 -0.5497 -0.8081
vn -0.3811 0.6269 -0.6795
vt 0.757736 0.242162
vt 0.748925 0.112380
vt 0.699753 0.389714
vt 0.624744 0.574079
vt 0.534848 0.057736
vt 0.510182 0.066773
vt 0.501668 0.843798
vt 0.641830 0.993591
vt 0.392720 0.979284
vt 0.241752 0.958264
vt 0.046400 0.992521
vt 0.785518 0.998606
vt 0.514766 0.982700
vt 0.270113 0.979169
vt 0.077332 0.380642
vt 0.748162 0.752203
vt 0.655209 0.813374
vt 0.700499 0.836098
vt 0.674709 0.237710
vt 0.628499 0.152773
vt 0.611977 0.311844
vt 0.638079 0.721979
vt 0.571538 0.648504
vt 0.565587 0.937074
vt 0.524636 0.950074
vt 0.547656 0.329900
vt 0.556878 0.218314
vt 0.616747 0.050102
vt 0.553589 0.047024
vt 0.511986 0.254563
vt 0.417841 0.218615
vt 0.454733 0.348008
vt 0.671094 0.009663
vt 0.234375 0.000000
vt 0.076334 0.020831
vt 0.930170 0.023598
vt 0.541975 0.023512
vt 0.440442 0.045146
vt 0.376304 0.451185
vt 0.425198 0.876860
vt 0.327019 0.797695
vt 0.289634 0.716910
vt 0.337333 0.940876
vt 0.249458 0.513592
vt 0.212931 0.184129
vt 0.264990 0.320697
vt 0.244453 0.868977
vt 0.197080 0.486609
vt 0.231972 0.748182
vt 0.252472 0.664247
vt 0.222250 0.367641
vt 0.157388 0.272095
vt 0.206919 0.821636
vt 0.103613 0.650092
vt 0.161851 0.089804
vt 0.099713 0.325346
vt 0.230713 0.024679
vt 0.178398 0.027832
vt 0.081962 0.051332
vt 0.123448 0.173847
vt 0.023759 0.943501
vt 0.968876 0.941750
vt 0.997431 0.658093
vt 0.027900 0.594905
vt 0.998663 0.460871
vt 0.031579 0.377261
vt 0.071478 0.777453
vt 0.022764 0.227252
vt 0.989765 0.194774
vt 0.003157 0.345808
vt 0.987702 0.342313
vt 0.001373 0.594066
vt 0.950568 0.625554
vt 0.041724 0.697633
vt 0.990299 0.757215
vt 0.006061 0.265995
vt 0.990603 0.264469
vt 0.907970 0.631130
vt 0.000276 0.108959
vt 0.907314 0.144073
vt 0.912662 0.267053
vt 0.846632 0.627862
vt 0.004885 0.797375
vt 0.005638 0.860563
vt 0.954610 0.803945
vt 0.949580 0.809808
vt 0.864505 0.331012
vt 0.832200 0.566330
vt 0.874417 0.728397
vt 0.785570 0.831427
vt 0.841264 0.252028
vt 0.782761 0.674977
vt 0.813089 0.472334
vt 0.782179 0.450388
vt 0.784614 0.376864
vt 0.744447 0.604695
vt 0.677218 0.483649
vt 0.699557 0.673578
vt 0.603379 0.418748
vt 0.550467 0.493843
vt 0.481880 0.950076
vt 0.411284 0.954292
vt 0.509748 0.966953
vt 0.506387 0.404262
vt 0.451355 0.727210
vt 0.458528 0.581708
vt 0.384959 0.701737
vt 0.428257 0.798000
vt 0.452032 0.135589
vt 0.359274 0.362054
vt 0.307088 0.650318
vt 0.338628 0.523950
vt 0.386562 0.021821
vt 0.236328 0.007812
vt 0.334101 0.039314
vt 0.326529 0.260669
vt 0.281180 0.153643
vt 0.270860 0.506893
vt 0.209127 0.291360
vt 0.164217 0.649614
vt 0.164928 0.441943
vt 0.084362 0.944758
vt 0.100646 0.927395
vt 0.061691 0.502689
vt 0.117432 0.510572
vt 0.045443 0.143463
vt 0.990905 0.148539
vt 0.051855 0.044588
vt 0.992198 0.044953
vt 0.018913 0.044211
vt 0.910531 0.549452
vt 0.908540 0.401743
vt 0.675608 0.037000
vt 0.733385 0.041082
vt 0.813576 0.050878
s 0
f 66/94/1 68/96/1 69/97/1
f 67/95/2 12/19/2 1/1/2
f 12/19/3 13/20/3 2/2/3
f 68/96/4 70/98/4 69/97/4
f 62/90/5 7/8/5 11/18/5
f 9/16/6 11/18/6 10/17/6
f 11/18/7 17/24/7 10/17/7
f 70/98/8 15/22/8 4/4/8
f 70/98/9 4/4/9 69/97/9
f 2/2/10 13/20/10 20/28/10
f 97/133/11 20/28/11 24/33/11
f 7/8/12 17/24/12 11/18/12
f 3/3/13 69/97/13 14/21/13
f 69/97/14 71/99/14 14/21/14
f 12/19/15 3/3/15 14/21/15
f 15/22/16 16/23/16 4/4/16
f 13/20/17 5/5/17 20/28/17
f 18/26/18 21/30/18 19/27/18
f 16/23/19 75/105/19 72/100/19
f 21/30/20 22/31/20 79/109/20
f 75/105/21 76/106/21 72/100/21
f 19/27/22 79/109/22 5/6/22
f 74/104/23 72/100/23 76/106/23
f 78/108/24 75/105/24 6/7/24
f 76/106/25 25/39/25 23/32/25
f 73/101/26 26/40/26 6/7/26
f 6/7/27 27/41/27 78/108/27
f 26/40/28 27/41/28 6/7/28
f 25/39/29 22/31/29 23/32/29
f 25/39/30 80/110/30 22/31/30
f 78/108/31 77/107/31 75/105/31
f 79/109/32 83/113/32 24/38/32
f 29/43/33 73/102/33 7/9/33
f 26/40/34 73/102/34 29/43/34
f 77/107/35 82/112/35 25/39/35
f 27/41/36 81/111/36 77/107/36
f 77/107/37 81/111/37 82/112/37
f 79/109/38 85/117/38 83/115/38
f 25/39/39 82/112/39 80/110/39
f 81/111/40 30/44/40 86/118/40
f 80/110/41 82/112/41 32/46/41
f 27/41/42 35/49/42 28/42/42
f 27/41/43 28/42/43 81/111/43
f 37/51/44 87/119/44 32/46/44
f 33/47/45 35/49/45 27/41/45
f 85/117/46 41/55/46 83/115/46
f 86/118/47 30/44/47 32/46/47
f 83/114/48 43/57/48 24/34/48
f 32/46/49 30/44/49 37/51/49
f 39/53/50 35/49/50 33/47/50
f 35/49/51 39/53/51 48/67/51
f 88/120/52 35/49/52 48/67/52
f 34/48/53 89/121/53 37/51/53
f 7/10/54 90/123/54 33/47/54
f 37/51/55 89/121/55 38/52/55
f 89/121/56 42/56/56 38/52/56
f 89/121/57 88/120/57 40/54/57
f 42/56/58 49/68/58 38/52/58
f 88/120/59 48/67/59 40/54/59
f 89/121/60 8/15/60 42/56/60
f 90/123/61 48/67/61 39/53/61
f 46/64/62 92/125/62 40/54/62
f 41/55/63 93/126/63 43/59/63
f 43/59/64 94/128/64 24/35/64
f 91/124/65 47/66/65 8/15/65
f 49/68/66 93/126/66 44/60/66
f 45/61/67 90/122/67 7/11/67
f 46/64/68 47/66/68 91/124/68
f 45/61/69 58/84/69 90/123/69
f 52/74/70 48/67/70 58/83/70
f 46/63/71 52/75/71 51/73/71
f 47/65/72 51/73/72 50/71/72
f 51/73/73 54/78/73 95/131/73
f 51/73/74 95/131/74 96/132/74
f 50/71/75 51/73/75 96/132/75
f 55/80/76 53/77/76 56/81/76
f 50/71/77 96/132/77 56/81/77
f 51/73/78 58/85/78 61/89/78
f 51/73/79 61/89/79 54/78/79
f 55/80/80 97/135/80 94/129/80
f 94/129/81 97/135/81 24/36/81
f 96/132/82 57/82/82 60/88/82
f 56/81/83 96/132/83 59/87/83
f 56/81/84 59/87/84 63/91/84
f 61/89/85 57/82/85 54/78/85
f 45/62/86 7/12/86 62/90/86
f 59/87/87 67/95/87 63/91/87
f 61/89/88 64/92/88 57/82/88
f 62/90/89 64/92/89 61/89/89
f 67/95/90 1/1/90 63/91/90
f 55/80/91 63/91/91 1/1/91
f 55/80/92 1/1/92 2/2/92
f 64/92/93 9/16/93 68/96/93
f 66/94/94 69/97/94 3/3/94
f 62/90/95 11/18/95 9/16/95
f 68/96/96 9/16/96 70/98/96
f 2/2/97 1/1/97 12/19/97
f 2/2/98 20/28/98 97/134/98
f 67/95/99 3/3/99 12/19/99
f 70/98/100 9/16/100 10/17/100
f 70/98/101 10/17/101 15/22/101
f 12/19/102 14/21/102 19/27/102
f 69/97/103 4/4/103 71/99/103
f 71/99/104 16/23/104 72/100/104
f 71/99/105 72/100/105 18/26/105
f 17/24/106 6/7/106 10/17/106
f 14/21/107 71/99/107 18/26/107
f 15/22/108 10/17/108 16/23/108
f 19/27/109 14/21/109 18/26/109
f 12/19/110 19/27/110 13/20/110
f 71/99/111 4/4/111 16/23/111
f 13/20/112 19/27/112 5/5/112
f 20/29/113 5/5/113 24/37/113
f 18/26/114 72/100/114 74/104/114
f 6/7/115 17/24/115 73/103/115
f 73/103/116 17/25/116 7/13/116
f 18/26/117 74/104/117 21/30/117
f 10/17/118 6/7/118 16/23/118
f 19/27/119 21/30/119 79/109/119
f 21/30/120 23/32/120 22/31/120
f 74/104/121 23/32/121 21/30/121
f 16/23/122 6/7/122 75/105/122
f 74/104/123 76/106/123 23/32/123
f 79/109/124 24/38/124 5/6/124
f 75/105/125 77/107/125 76/106/125
f 78/108/126 27/41/126 77/107/126
f 22/31/127 80/110/127 84/116/127
f 76/106/128 77/107/128 25/39/128
f 79/109/129 22/31/129 85/117/129
f 26/40/130 29/43/130 33/47/130
f 27/41/131 26/40/131 33/47/131
f 85/117/132 22/31/132 84/116/132
f 82/112/133 81/111/133 86/118/133
f 82/112/134 86/118/134 32/46/134
f 84/116/135 80/110/135 32/46/135
f 28/42/136 36/50/136 81/111/136
f 28/42/137 35/49/137 36/50/137
f 85/117/138 84/116/138 32/46/138
f 85/117/139 87/119/139 31/45/139
f 41/55/140 85/117/140 31/45/140
f 81/111/141 36/50/141 30/44/141
f 30/44/142 34/48/142 37/51/142
f 7/14/143 33/47/143 29/43/143
f 85/117/144 32/46/144 87/119/144
f 37/51/145 38/52/145 87/119/145
f 36/50/146 35/49/146 88/120/146
f 34/48/147 36/50/147 88/120/147
f 30/44/148 36/50/148 34/48/148
f 83/115/149 41/55/149 43/58/149
f 33/47/150 90/123/150 39/53/150
f 31/45/151 87/119/151 44/60/151
f 87/119/152 38/52/152 44/60/152
f 41/55/153 31/45/153 44/60/153
f 89/121/154 34/48/154 88/120/154
f 44/60/155 38/52/155 49/68/155
f 89/121/156 40/54/156 92/125/156
f 89/121/157 92/125/157 8/15/157
f 41/55/158 44/60/158 93/126/158
f 52/74/159 40/54/159 48/67/159
f 8/15/160 92/125/160 91/124/160
f 8/15/161 47/66/161 42/56/161
f 49/68/162 42/56/162 47/66/162
f 90/123/163 58/84/163 48/67/163
f 49/68/164 47/66/164 50/70/164
f 40/54/165 52/74/165 46/64/165
f 92/125/166 46/64/166 91/124/166
f 43/59/167 93/126/167 55/79/167
f 43/59/168 55/79/168 94/130/168
f 47/66/169 46/64/169 51/72/169
f 49/68/170 50/70/170 53/76/170
f 49/69/171 55/80/171 93/127/171
f 58/85/172 51/73/172 52/75/172
f 50/71/173 56/81/173 53/77/173
f 49/69/174 53/77/174 55/80/174
f 95/131/175 54/78/175 57/82/175
f 96/132/176 95/131/176 57/82/176
f 61/89/177 58/85/177 62/90/177
f 56/81/178 63/91/178 55/80/178
f 96/132/179 60/88/179 65/93/179
f 62/90/180 58/86/180 45/62/180
f 59/87/181 65/93/181 67/95/181
f 96/132/182 65/93/182 59/87/182
f 57/82/183 64/92/183 60/88/183
f 60/88/184 64/92/184 65/93/184
f 97/135/185 55/80/185 2/2/185
f 65/93/186 64/92/186 68/96/186
f 65/93/187 68/96/187 66/94/187
f 65/93/188 66/94/188 67/95/188
f 67/95/189 66/94/189 3/3/189
f 62/90/190 9/16/190 64/92/190
